<?xml version="1.0" encoding="UTF-8" standalone="no"?>
<svg
   xmlns:dc="http://purl.org/dc/elements/1.1/"
   xmlns:cc="http://creativecommons.org/ns#"
   xmlns:rdf="http://www.w3.org/1999/02/22-rdf-syntax-ns#"
   xmlns:svg="http://www.w3.org/2000/svg"
   xmlns="http://www.w3.org/2000/svg"
   id="svg8"
   version="1.1"
   viewBox="0 0 129.47585 150.48361"
   height="150.48361mm"
   width="129.47585mm">
  <defs
     id="defs2" />
  <metadata
     id="metadata5">
    <rdf:RDF>
      <cc:Work
         rdf:about="">
        <dc:format>image/svg+xml</dc:format>
        <dc:type
           rdf:resource="http://purl.org/dc/dcmitype/StillImage" />
        <dc:title></dc:title>
      </cc:Work>
    </rdf:RDF>
  </metadata>
  <g
     transform="translate(-41.095413,-20.674865)"
     id="layer1">
    <path
       transform="matrix(1.0668154,0,0,1.0737925,-2.5551085,16.57175)"
       d="M 101.6,142.88445 41.850979,108.38834 41.850977,39.396116 101.6,4.9000015 l 59.74902,34.4961115 0,68.992227 z"
       id="path4681"
       style="opacity:0.98999999;fill:#ffe6d5;fill-opacity:0.98173517;stroke:#782121;stroke-width:1.86863804;stroke-miterlimit:4;stroke-dasharray:none;stroke-opacity:1" />
    <ellipse
       ry="52.425674"
       rx="52.166138"
       transform="scale(-1,1)"
       cy="95.916672"
       cx="-105.83334"
       id="path4786-3"
       style="opacity:0.98999999;fill:#ff9955;fill-opacity:0.98173517;stroke:none;stroke-width:0.29107457;stroke-opacity:1" />
    <ellipse
       ry="31.856768"
       rx="32.2043"
       cy="95.916672"
       cx="105.83334"
       id="path4786"
       style="opacity:0.98999999;fill:#d45500;fill-opacity:0.98173517;stroke:none;stroke-width:0.17827716;stroke-opacity:1" />
    <ellipse
       ry="9.9722471"
       rx="9.9722481"
       cy="95.916672"
       cx="105.83334"
       id="path4786-6-0"
       style="opacity:0.98999999;fill:#552200;fill-opacity:0.98173517;stroke:#a02c2c;stroke-width:0.05550486;stroke-opacity:1" />
    <g
       id="text827"
       style="font-style:normal;font-variant:normal;font-weight:bold;font-stretch:normal;font-size:23.80923843px;line-height:125%;font-family:'Bitstream Charter';-inkscape-font-specification:'Bitstream Charter, Bold';font-variant-ligatures:normal;font-variant-caps:normal;font-variant-numeric:normal;font-feature-settings:normal;text-align:start;letter-spacing:0px;word-spacing:0px;writing-mode:lr-tb;text-anchor:start;fill:#803300;fill-opacity:1;stroke:none;stroke-width:0.5952298px;stroke-linecap:butt;stroke-linejoin:miter;stroke-opacity:1"
       transform="scale(1.031384,0.96957099)"
       aria-label="YOG">
      <path
         id="path956"
         style="fill:#552200"
         d="m 76.824761,90.927024 v 1.166652 l 1.523791,0.238093 4.571374,8.285611 v 4.64281 l -0.380948,0.33332 -1.595219,0.11905 v 1.19046 h 7.142771 v -1.19046 l -1.619028,-0.11905 -0.380948,-0.33332 v -5.21423 l 4.523756,-7.690382 1.404745,-0.261902 v -1.166652 h -5.190414 v 1.142843 l 1.428554,0.261902 0.190474,0.380948 -3.404721,5.833263 -3.261866,-6.047546 0.214283,-0.285711 1.333318,-0.119047 v -1.166652 z" />
      <path
         id="path958"
         style="fill:#aa4400"
         d="m 94.571596,98.831691 c 0,5.071369 3.261865,8.452279 8.190374,8.452279 1.99998,0 3.90472,-0.73809 5.35708,-2.09521 1.66665,-1.5476 2.54759,-3.69043 2.54759,-6.214214 0,-2.690444 -0.99999,-4.97613 -2.8333,-6.54754 -1.45236,-1.238081 -3.19044,-1.857121 -5.23803,-1.857121 -2.21426,0 -4.071381,0.690468 -5.571363,2.071404 -1.619028,1.499982 -2.452351,3.595195 -2.452351,6.190402 z m 8.071334,-6.738015 c 2.5952,0 4.45233,2.547589 4.45233,6.952298 0,4.214236 -1.88093,6.785636 -4.49995,6.785636 -2.54759,0 -4.476138,-2.5714 -4.476138,-6.952301 0,-4.261853 1.880928,-6.785633 4.523758,-6.785633 z" />
      <path
         id="path960"
         style="fill:#552200"
         d="m 122.77492,99.045974 v 1.166656 l 1.76189,0.11904 0.38095,0.33333 v 4.85709 c -0.61904,0.0476 -1.07142,0.0714 -1.30951,0.0714 -3.66663,0 -5.90469,-2.49997 -5.90469,-6.785628 0,-4.166617 2.19045,-6.642778 5.73802,-6.642778 0.69047,0 1.33332,0.119046 1.97617,0.380948 l 0.35714,0.428566 0.45237,2.52378 h 1.73808 v -4.047571 c -1.76189,-0.523803 -3.45234,-0.785705 -5.02375,-0.785705 -5.28565,0 -8.69037,3.261866 -8.69037,8.14276 0,4.952318 3.38091,8.380848 8.38085,8.380848 1.73807,0 3.49996,-0.33333 5.33327,-0.97618 V 100.665 l 0.38095,-0.33333 1.38093,-0.11904 v -1.166656 z" />
    </g>
  </g>
</svg>
